<?xml version="1.0" encoding="UTF-8"?>
<svg width="437" height="247" inkscape:version="1.0.2 (e86c870879, 2021-01-15)" sodipodi:docname="Persona_5_logo.svg" version="1.1" viewBox="0 0 437 247" xmlns="http://www.w3.org/2000/svg" xmlns:cc="http://creativecommons.org/ns#" xmlns:dc="http://purl.org/dc/elements/1.1/" xmlns:inkscape="http://www.inkscape.org/namespaces/inkscape" xmlns:rdf="http://www.w3.org/1999/02/22-rdf-syntax-ns#" xmlns:sodipodi="http://sodipodi.sourceforge.net/DTD/sodipodi-0.dtd">
 <metadata>
  <rdf:RDF>
   <cc:Work rdf:about="">
    <dc:format>image/svg+xml</dc:format>
    <dc:type rdf:resource="http://purl.org/dc/dcmitype/StillImage"/>
    <dc:title/>
   </cc:Work>
  </rdf:RDF>
 </metadata>
 <sodipodi:namedview bordercolor="#666666" borderopacity="1" gridtolerance="10" guidetolerance="10" inkscape:current-layer="svg869" inkscape:cx="273.68972" inkscape:cy="115.60496" inkscape:document-rotation="0" inkscape:pageopacity="0" inkscape:pageshadow="2" inkscape:window-height="1014" inkscape:window-maximized="1" inkscape:window-width="1920" inkscape:window-x="0" inkscape:window-y="36" inkscape:zoom="1.6639676" objecttolerance="10" pagecolor="#ffffff" showgrid="false"/>
 <g transform="matrix(.994 0 0 .981 2.78 1.97)">
  <path d="m228 248c-1.21-.267-3.52-1.85-5.15-3.51l-2.96-3.03-1.36 6.18h-15.8v-3c0-2.83-.226-3-3.97-3-3.25 0-4.37.543-6.19 3l-2.22 3h-26.7l1.66-2.53c2.41-3.68 1.01-4.15-1.57-.526l-2.18 3.06h-11.4c-6.29 0-11.4-.241-11.4-.535s.727-1.64 1.62-3l1.62-2.46h-6.12c-3.36 0-6.12-.295-6.12-.656 0-.361 1.12-2.13 2.5-3.93s2.5-3.56 2.5-3.9-1.91-.486-4.25-.317c-4.05.293-4.48.653-9.18 7.56l-4.93 7.25h-15.7l1.56-2.22c2.38-3.4 1.99-3.78-3.94-3.78-3.02 0-5.48-.338-5.46-.75.0224-.412 6.47-9.98 14.3-21.2l14.3-20.5-3.82-.565c-4.46-.659-4.91-.997-5.12-3.82-.385-5.11-4.04-.847-20.2 23.6-9.35 14.1-17.8 26.5-18.8 27.5-1.61 1.64-4.3 1.79-33.2 1.79-30.5 0-31.5-.0586-32.1-1.99-.348-1.1-.351-2.45-.00837-3 .384-.621-1.1-1.01-3.87-1.01-3.53 0-4.62-.405-5.09-1.9-.441-1.39 14.3-24.4 55-85.8 30.6-46.1 56.6-84.9 57.7-86.1l2.11-2.28 41.5.0937c28.5.0644 41.6-.239 41.9-.97.212-.635-1.28-1.06-3.69-1.06-8.19 0-7.8-.976 12.5-31.6 10.2-15.4 19.3-28.5 20.1-29.2 1.24-.977 19.6-1.25 84.4-1.25 77.8 0 82.8.105 83.7 1.75.495.962.707 2.29.472 2.94-.279.775 1.08 1.3 3.89 1.5 6.81.49 6.32 2.62-4.3 18.5-5.08 7.6-9.94 14.4-10.8 15-1.19.918-13.8 1.23-51.1 1.27l-49.5.049 10.2 3.44c5.6 1.89 13 4.87 16.5 6.62 8.24 4.16 23.3 14.2 28.2 18.8 9.11 8.58 13.7 18.8 13.7 30.7 0 17.5-9.52 33.3-29.3 48.6-25.9 20-64.3 34.9-111 43.1l-13.4 2.34 13.3.5c13 .489 13.4.562 15.7 3.25 2.97 3.46 4.56 3.43 11.7-.206 9.72-4.93 19.6-5.23 24.1-.728 4.71 4.7 6.58 4.82 14.5.895 6.26-3.11 8.22-3.6 14.6-3.65 6.59-.0539 7.66.213 10.2 2.55 1.55 1.44 4.26 3.3 6.01 4.14l3.19 1.53 2.58-3.89c2.55-3.86 2.63-3.89 9.06-3.89h6.49v3c0 2.72.302 3 3.28 3 2.59 0 3.66-.635 5.06-3 1.72-2.91 2.01-3 9.22-3 4.09 0 7.44.241 7.44.535s-.727 1.64-1.62 3l-1.62 2.46h4.93c4.17 0 5.37-.461 7.8-3 2.61-2.73 3.46-3 9.31-3h6.44l-1.2 6h10l-1.4 7.5 11.7-13.5h27.9l-1.62 2.46c-.888 1.36-1.62 2.71-1.62 3s2.73.535 6.07.535h6.07l-4.35 6.25c-4.3 6.17-4.42 6.25-9.52 6.55-5.13.298-5.15.317-3.22 2.25 4.18 4.18 1.09 12.7-7.58 20.9-7.15 6.76-13.2 9.44-21.3 9.51-5.75.0458-6.55-.206-8.54-2.7-2.72-3.41-4.22-3.49-5.03-.25-.604 2.4-.931 2.5-8.58 2.5h-7.96l.975-2.57c.536-1.41.975-2.76.975-3 0-.239-2.23-.435-4.97-.435-4.09 0-5.57.528-8.38 3-3.39 2.98-3.5 3-15.5 3h-12.1v-3c0-2.73-.299-3-3.31-3-2.52 0-3.84.717-5.53 3-2.12 2.87-2.54 3-9.74 3h-7.53l1.56-2.22c.856-1.22 1.56-2.57 1.56-3 0-1.57-3.97-.705-10.1 2.19-10.9 5.17-19.3 5.22-25.2.153-4.77-4.11-6.34-4.38-10.5-1.82-2.04 1.25-5.02 2.84-6.62 3.54-3.16 1.37-13.7 2.31-17.3 1.52zm8.98-10.2c5.55-2.46 13-9.18 14.7-13.2 2.16-5.2.711-7.63-6.01-10.1-3.3-1.2-5.99-2.79-5.99-3.53 0-2.19 4.59-4.55 8.18-4.21 2.77.266 3.28.692 3.08 2.57-.215 2.03.194 2.25 4.19 2.25 5.15 0 7.54-2.41 7.54-7.6 0-4.52-2.25-5.92-9.4-5.81-8.42.125-15.5 3.36-21.2 9.71-3.85 4.28-4.48 5.56-4.22 8.61.285 3.41.601 3.69 6.3 5.71 3.3 1.17 6.14 2.8 6.3 3.64.539 2.71-4.74 5.87-9.25 5.54-3.7-.272-4.05-.541-4.01-3.05.0376-2.62-.185-2.75-4.72-2.75-4.26 0-4.92.31-6.29 2.95-2.75 5.31-1.51 9.37 3.47 11.4 2.75 1.12 12.7-.112 17.3-2.15zm41.5-1.34c8.53-4.07 18.3-13.8 22.3-22.2 3.57-7.54 3.65-9.76.519-13.4-2.2-2.56-2.99-2.8-8.86-2.72-4.99.0688-7.94.789-13.1 3.2-14.5 6.77-28.7 25.6-25.6 33.8 2.31 6.07 13.4 6.62 24.7 1.23zm-12.2-5.36c-.904-.904-1.64-2.03-1.64-2.51 0-4.06 7.47-14.7 13.1-18.5 7.11-4.93 13.9-5.12 13.9-.388 0 5.25-9.13 17.3-15.3 20.3-5.6 2.65-8.28 2.96-10.1 1.17zm12.6-5.58c3.37-2.77 9.72-10.9 9.72-12.4 0-2.5-11.1 7.84-13.6 12.7-1.87 3.62-.751 3.54 3.88-.278zm113 12c8.16-4.08 17.8-15.3 17.8-20.7 0-3.16-2.33-5.2-6.25-5.47-2.06-.143-3.75-.507-3.75-.809-.007-1.97 3.2-2.95 9.65-2.95 7.05 0 7.32-.094 9.8-3.34 4.1-5.38 3.7-5.66-8.2-5.65l-10.8.003-7.11 8.25c-3.91 4.54-8.38 9.76-9.93 11.6l-2.81 3.35 5.43-.525c2.98-.289 6.89-.836 8.68-1.22 2.92-.621 3.25-.459 3.25 1.59 0 2.87-8.21 10.9-11.1 10.9-1.7 0-2.01-.476-1.62-2.5.457-2.39.266-2.5-4.43-2.5-4.69 0-4.98.163-6.41 3.57-2.76 6.61.322 9.77 8.78 8.98 2.57-.241 6.62-1.41 9-2.6zm-329 .798c.874-.688 14.5-20.8 30.3-44.8s29.4-44.1 30.3-44.8c1.01-.776 4.87-1.25 10.2-1.25 19.2-.008 52.1-4.47 73.4-9.96 31.5-8.11 52.1-20.8 55.7-34.2 3.51-13-7.61-24.2-29.7-29.9-17.6-4.49-29.2-5.33-75.3-5.39l-43.5-.0595-56.6 85c-31.2 46.8-56.4 85.3-56.2 85.8.246.412 13.8.75 30.2.75 22.3 0 30.1-.314 31.3-1.25zm81.8-122c0-1.18 15.6-24.9 18.3-27.8 1.78-1.94 3.07-2.25 9.32-2.25 3.99 0 10.8.483 15.1 1.07 11.4 1.56 16.3 4.9 15 10.2-2.22 8.85-15.7 15.6-37.1 18.7-8.8 1.26-20.5 1.34-20.5.128zm28.7-3.65c9.28-1.92 16.8-4.78 21.1-8.06 3.64-2.77 6.75-7.94 5.31-8.83-.511-.316-6.47-.833-13.2-1.15l-12.3-.576-6 9.23c-3.3 5.08-6.15 9.62-6.33 10.1-.491 1.27 2.97 1.06 11.5-.707zm-62.2 119 4.98-7.47 6.07-.0297c8.03-.0393 14.3-2.31 19.8-7.13 5.65-4.97 8.62-9.73 8.62-13.8 0-4.29-2.54-5.11-15.8-5.1l-10.7.0107-13.8 19.9c-7.56 10.9-13.8 20.2-13.8 20.5s2.14.581 4.77.581h4.77zm11.5-16.1c0-.323 1.43-2.57 3.17-5 2.9-4.03 3.54-4.41 7.44-4.41 2.35 0 4.58.493 4.95 1.1 1.1 1.79-1.61 5.7-5.1 7.36-3.14 1.49-10.5 2.16-10.5.959zm44.8 20.1c1.24-1.91 2.25-3.7 2.25-3.99 0-.283-4.5-.514-10-.514s-10-.313-10-.696 1.19-2.41 2.64-4.5l2.64-3.8h19.7l5.1-7.5-19-.572 5.25-7.93 21.2-.0248 2.25-3.47c1.24-1.91 2.25-3.7 2.25-3.99 0-.283-6.86-.497-15.2-.476l-15.2.0378-13.5 19.6c-7.42 10.8-13.6 20-13.8 20.5-.183.475 6.79.858 15.5.851l15.8-.0124 2.25-3.47zm18.3-4.5c4.65-6.89 5.8-8 8.28-8h2.87l-.73 16.1 12-.583.574-17.2 4.04-1.82c5.02-2.26 12.5-10.4 13.4-14.7.565-2.57.276-3.51-1.54-4.97-1.88-1.53-4.13-1.8-14.4-1.78l-12.1.0261-13.5 19.6c-7.42 10.8-13.6 20-13.8 20.5-.183.501 1.88.912 4.58.912h4.91zm14.6-21c2.54-3.83 2.87-4 7.96-4 5.86 0 7.11.927 5.26 3.89-1.76 2.82-5.19 4.11-10.9 4.11h-4.97zm107 18.6c3.74-5.46 7.08-10.2 7.42-10.5s.294 4.26-.0992 10.2l-.715 10.8 9.69-.0214 13.8-19.9c7.56-10.9 13.8-20.2 13.8-20.5s-2.14-.568-4.75-.551l-4.75.0302-6.49 9.56c-3.57 5.26-6.9 9.81-7.4 10.1-.546.337-.69-3.54-.357-9.59l.56-10.2h-9.45l-8.09 11.8c-4.45 6.46-10.8 15.7-14.2 20.6l-6.13 8.8 10.5-.607zm34.5 4.92c5.67-5.13 6.41-5.5 11.1-5.5h5.04l-3.78 11 11.4-.0228 12.1-40.5-4.38-.308c-4.26-.299-4.64-.0657-13.6 8.2-5.05 4.68-14.8 13.9-21.7 20.5l-12.5 12 5.08.0502c4.78.0472 5.44-.273 11.2-5.45zm16.8-16.5c3.27-3.41 3.88-3.34 2.95.372-.496 1.98-1.29 2.62-3.24 2.62h-2.58zm-179-28.5c76.3-8.39 140-37.9 157-73 4.31-8.7 4.35-8.89 4.35-19.4 0-9.65-.256-11.1-2.92-16.6-4.3-8.84-14-18-25.3-23.8-9.73-5.03-28.7-11.7-39.1-13.8-6.56-1.33-7.55-2.57-4.86-6.11 1.23-1.63 4.95-1.75 52.8-1.75 39.7 0 51.8-.287 53-1.25 2.04-1.62 17.9-25.5 18.6-27.9.457-1.75-2.72-1.82-81.1-1.82-44.8 0-82.2.254-83 .564-2.01.77-38 55.1-37.3 56.2.316.511 5.59 1.25 11.7 1.64 22.4 1.42 43.7 5.99 56.6 12.1 12.7 6.07 19.5 16.4 17.8 26.9-4.87 29.2-54.4 48.2-138 53.1-8.58.504-11.5 1.04-12.6 2.3-4.45 5.3-20.9 32.4-20.1 33.2 2.3 2.3 49.8 1.94 72.4-.55zm95.7-96c-.948-4.47-3.19-7.97-6.86-10.7-2.61-1.95-14.1-6.11-19.9-7.2l-3.5-.657 3.16 1.45c1.74.795 7.23 4.18 12.2 7.53 8.99 6.05 14 11.9 14.2 16.7.0753 1.44.275 1.3.816-.588.394-1.38.334-4.3-.133-6.5z" inkscape:connector-curvature="0"/>
  <g fill="#fff">
   <path d="m5.4 238c-1.29-.195-2.34-.551-2.34-.791 0-.89 18.4-28.9 64.5-98.2l47.3-71.2 34.8.0024c50.7.0035 68.4 1.24 85.4 5.97 27.4 7.6 36 24.8 20.1 40.2-17.3 16.8-60.5 29.1-113 32.1-10.6.618-17.2 1.36-18.4 2.08-.999.614-15.1 21-31.3 45.2l-29.5 44.1-5.12.535c-5.49.574-48.8.514-52.7-.0739zm169-123c15.1-3.47 23.6-8.1 27.2-14.7 1.77-3.3 1.94-4.23 1.1-6.06-2.22-4.88-9.58-7.14-25.7-7.91-10.2-.485-10.7-.43-13.1 1.47-2.8 2.24-19.2 26.7-19.2 28.6 0 1.09 1.61 1.2 11.3.765 6.29-.282 14.5-1.24 18.5-2.17z" inkscape:connector-curvature="0"/>
   <path d="m112 190c-2.45-.233-4.04-.8-4.04-1.44 0-1.16 14.2-24.8 17.5-29.2 1.15-1.51 2.74-3.1 3.54-3.52.799-.424 9.48-1.4 19.3-2.18 72.7-5.75 116-21 127-44.9 4.86-10.3 3.6-18.5-4.11-26.8-9.71-10.5-30.5-17-64.1-20.2-7.76-.734-14.3-1.51-14.5-1.72-.213-.21.36-1.8 1.27-3.52 1.79-3.38 30.6-46.8 33.4-50.3l1.69-2.12h81.1c44.6 0 81.4.254 81.7.565.311.311.0925 1.46-.485 2.55-2.13 4.02-15.5 23.6-17.1 25-1.53 1.38-5.32 1.52-50.3 1.78-26.7.157-50.2.481-52.1.719-2.62.327-3.77.973-4.65 2.61-1.04 1.94-.991 2.3.411 3.33.867.634 3.72 1.6 6.35 2.14 8.86 1.84 25.1 7.66 35.7 12.8 9.46 4.59 11.3 5.85 17.9 12.5 5.11 5.09 8.17 8.95 9.87 12.5 2.3 4.78 2.46 5.76 2.47 15.7.01 10.2-.0898 10.8-2.76 16.5-8.61 18.2-26.6 33.9-54.2 47.3-30.6 14.9-68.4 24.9-109 28.8-9.91.954-55.9 1.79-62.7 1.14z" inkscape:connector-curvature="0"/>
   <path d="m98.6 239c-.526-.101-.956-.335-.956-.52 0-.338 11.9-17.9 21.7-32.1l5.3-7.65 10.4.0338c14.1.0458 15.7.556 15.7 4.96-.005 2.71-1.25 5.49-3.99 8.91-5.45 6.8-14.1 11.4-21.5 11.4-1.31.003-3.86.132-5.67.285l-3.29.278-9.82 14.7-3.44-.0579c-1.89-.0318-3.87-.141-4.39-.242zm32.1-23.1c2.69-.606 4.82-1.8 6.39-3.59 1.61-1.83 2.28-3.39 1.94-4.49-.579-1.82-7.6-2.2-9.87-.529-1.47 1.08-6.03 7.35-6.04 8.3-.0133 1.17 3.19 1.3 7.59.302z" inkscape:connector-curvature="0"/>
   <path d="m140 239c-6.37-.223-6.43.708.683-9.81 3.43-5.08 9.58-14.1 13.6-20l7.4-10.7 12.2.0528c6.7.029 13.5.172 15 .319l2.86.266-4.45 7.01-21.3.014-2.55 3.88c-1.4 2.13-2.61 4.04-2.69 4.24s2.41.386 5.52.411c3.12.0248 7.34.168 9.39.319l3.72.274-4.85 7.01h-19.7l-2.67 4.05c-1.94 2.94-2.55 4.18-2.21 4.52.294.294 3.8.541 9.52.672 4.98.114 9.29.331 9.57.482.358.191-.165 1.35-1.7 3.77l-2.21 3.5-10.8-.0865c-5.96-.0476-12.5-.143-14.5-.213z" inkscape:connector-curvature="0"/>
   <path d="m173 239c-.643-.0974-1.17-.308-1.17-.468.003-.352 3.72-5.84 17.1-25.3l10.2-14.8 11.5.183c12.6.2 13.7.392 15.5 2.73 2 2.54-.0365 6.97-5.96 12.9-2.93 2.95-4.38 4.04-7.27 5.48l-3.61 1.79-.277 5.77c-.152 3.17-.277 7.07-.277 8.67v2.91h-3.34c-1.84 0-4.52.124-5.97.276-2.61.273-2.63.267-2.42-.744.117-.561.333-4.25.48-8.19l.268-7.17-2.59.187c-2.29.166-2.77.368-4.17 1.74-.872.856-3.5 4.42-5.84 7.92l-4.25 6.37-3.4-.0476c-1.87-.0262-3.93-.127-4.57-.225zm36.8-25.3c2.06-.666 4.74-3.14 5.14-4.75.547-2.18-.436-2.61-5.94-2.61-4.23 0-4.94.106-5.77.85-.98.879-5.09 6.75-5.09 7.27 0 .474 9.83-.164 11.7-.758z" inkscape:connector-curvature="0"/>
   <path d="m222 239c-.935-.137-2.11-.473-2.61-.747-1.46-.801-3.07-2.97-3.37-4.55-.365-1.94.888-5.86 2.39-7.47 1.13-1.21 1.3-1.25 5.04-1.25 3.77 0 3.89.0299 4.29 1.09.228.6.414 1.64.414 2.32 0 1.65.997 2.11 4.54 2.11 4.61-.007 8.56-2.22 8.76-4.91.113-1.54-1.43-2.61-6.7-4.66-2.18-.845-4.3-1.91-4.71-2.36-.449-.496-.826-1.76-.941-3.14-.242-2.92.901-5.03 4.95-9.14 5.08-5.16 10.2-7.7 17.3-8.59 5.12-.647 9.14-.0763 10.7 1.52 2.4 2.4 1.37 8.7-1.68 10.3-1.78.92-6.3 1.31-7.53.649-.662-.354-.92-.891-.92-1.91 0-1.93-.872-2.52-3.74-2.51-2.63.0103-5.25.921-6.77 2.35-2.06 1.93-.992 3.14 5.01 5.65 2.15.903 4.56 2.25 5.35 2.99 1.21 1.14 1.43 1.64 1.42 3.21-.0148 2.95-1.37 5.27-5.42 9.28-3.99 3.95-7.53 6.49-10.7 7.71-4.04 1.54-11.6 2.58-15.1 2.07z" inkscape:connector-curvature="0"/>
   <path d="m259 239c-4.08-1.46-5.42-3.46-5.09-7.59.693-8.64 12.4-22.8 24.1-29.2 1.52-.826 4.29-2.02 6.16-2.66 2.96-1.01 4.09-1.16 8.78-1.2 6.2-.0401 6.74.183 9.21 3.82 1.27 1.87 1.4 2.32 1.2 4.22-.547 5.23-5.42 13.4-11.7 19.8-4.56 4.59-7.58 6.92-12 9.3-6.94 3.7-15.8 5.21-20.6 3.49zm15.1-8.01c3.82-1.52 5.66-2.84 9.43-6.79 4.97-5.21 8.49-11.4 8.49-14.9 0-5.77-10.3-3.84-17.5 3.26-4.87 4.85-9.74 12.6-9.74 15.4-.00023.811.477 1.69 1.44 2.66 1.83 1.83 3.82 1.91 7.83.319z" inkscape:connector-curvature="0"/>
   <path d="m291 239c.207-.339 6.56-9.55 14.1-20.5l13.7-19.8h8.89l-.296 9.71c-.208 6.83-.159 9.79.167 10 .488.301 4.47-5.02 10.7-14.3l3.61-5.37 3.61.0258c6.33.0452 6.34-.624-.105 8.89-3.1 4.57-9.27 13.6-13.7 20.1l-8.07 11.8-9.27.0246.28-4.78c.83-14.2.859-16.2.238-16-.33.11-3.73 4.73-7.55 10.3l-6.95 10.1-2.61.004c-1.44.002-3.64.127-4.9.279-1.94.232-2.23.179-1.91-.342z" inkscape:connector-curvature="0"/>
   <path d="m350 199c-.0579-.608.0388-.702.527-.514.193.0742.182.161-.0777.601-.167.283-.323.514-.348.514-.0245 0-.0703-.27-.102-.601z" inkscape:connector-curvature="0"/>
   <path d="m351 199c.108-.0434.238-.0381.288.0119.0499.0499-.0388.0854-.197.0789-.175-.007-.211-.0428-.0908-.0908z" inkscape:connector-curvature="0"/>
   <path d="m354 239c0-.07.811-2.48 1.8-5.35.992-2.87 1.8-5.29 1.8-5.36 0-.0724-1.74-.131-3.87-.129-6.16.004-6.24.0399-12.3 5.41-4.46 3.96-5.76 4.86-7.59 5.25-.544.116-2.11.16-4.6.129l-3.77-.0465 7.3-7.01c12.2-11.7 19.5-18.6 26.5-25.1 6.57-6.09 8.18-7.4 10-8.1.829-.316 1.01-.327 3.65-.225 1.53.0589 3.12.151 3.54.205l.761.0983-12.1 40.3-5.59.0394c-3.07.0217-5.59-.0178-5.59-.0878zm5.71-19.1c.849-.428 1.26-1.15 1.65-2.92.446-2.02.373-2.43-.39-2.24-.402.101-5.62 5.09-5.62 5.37 0 .0671.831.122 1.85.122 1.62 0 1.93-.0422 2.52-.338z" inkscape:connector-curvature="0"/>
   <path d="m377 239c-1.49-.422-2.68-1.43-3.22-2.73-.668-1.61.0397-5.18 1.44-7.26 1.13-1.68 3.62-2.31 7.28-1.85l2.31.288.127 2.2c.119 2.06.205 2.21 1.31 2.34 1.63.187 4.24-1.44 7.28-4.52 2.99-3.03 4.49-5.37 4.49-6.99.003-1.57-.708-1.77-4.14-1.16-2.88.508-12.6 1.66-12.7 1.52-.053-.0421 4.25-5.18 9.56-11.4l9.66-11.3 8.5.007c7.8.006 11.7.313 12.4.964.519.519-.907 2.96-3.01 5.14l-2.17 2.26-6.29.254c-7 .283-10.1 1.13-10.1 2.78 0 .692.37.894 2.02 1.1 5.49.693 7.76 2.27 7.75 5.4-.008 3.65-3.43 8.94-9.49 14.7-6.13 5.79-11.4 8.23-18.3 8.47-2.1.0714-4.2.0242-4.66-.105z" inkscape:connector-curvature="0"/>
  </g>
 </g>
</svg>
